<svg id="图层_1" data-name="图层 1" xmlns="http://www.w3.org/2000/svg" viewBox="0 0 48 48"><defs><style>.cls-1{fill:#4b93de;}.cls-2{fill:#44aee8;}.cls-3{fill:#c21212;}.cls-4{fill:#105cb3;}.cls-5{fill:#d61e1e;}.cls-6{fill:#266bcc;}.cls-7{fill:#f0352f;}.cls-8{fill:#f7ec26;}.cls-9{fill:#e2d317;}.cls-10{fill:#d0b444;}</style></defs><title>ng-tangram.logo</title><polygon class="cls-1" points="20.04 25.41 27.61 25.41 23.83 16.52 20.04 25.41"/><path class="cls-2" d="M23.88.52,2.17,8.22,5.53,37.13,24,47.37,42.51,37,45.83,8.29Zm8.49,36.07-2.89-6.8H18.18l-2.89,6.8H10.21l11.35-25.4h0l2.26-5.07v0l0-.1,2.24,5.07h0L37.43,36.64Z"/><polygon class="cls-3" points="38.59 39.23 23.82 6.11 23.88 0.52 38.59 39.23 38.59 39.23"/><polygon class="cls-4" points="9.15 39.14 23.82 6.11 23.88 0.52 9.15 39.14 9.15 39.14"/><polygon class="cls-5" points="33.25 20.96 38.59 39.23 42.51 37.05 45.83 8.29 33.25 20.96"/><polygon class="cls-6" points="14.41 20.88 9.15 39.14 5.53 37.13 2.17 8.22 14.41 20.88"/><polygon class="cls-7" points="23.88 0.52 23.82 6.11 37.43 36.64 45.83 8.29 23.88 0.52"/><polygon class="cls-1" points="23.88 0.52 23.84 6.14 10.21 36.58 2.17 8.22 23.88 0.52"/><polygon class="cls-5" points="37.43 36.64 38.59 39.23 42.51 37.05 45.83 8.22 37.43 36.64"/><polygon class="cls-6" points="10.29 36.58 9.15 39.13 5.54 37.12 2.22 8.38 10.29 36.58"/><polygon class="cls-8" points="24 47.48 15.29 36.59 18.18 29.79 29.47 29.79 32.36 36.59 24 47.48"/><polygon class="cls-9" points="24 47.48 10.29 36.58 15.29 36.59 32.36 36.59 32.36 36.59 37.43 36.64 24 47.48"/><polygon class="cls-10" points="24 47.48 24 47.48 9.15 39.14 10.29 36.58 24 47.48"/><polygon class="cls-10" points="24 47.48 24 47.48 37.43 36.64 37.43 36.64 38.59 39.23 24 47.48"/></svg>